<svg width="76" height="72" viewBox="0 0 76 72" fill="none" xmlns="http://www.w3.org/2000/svg">
<path d="M11.6585 4.25428C9.98561 4.29272 8.37601 4.82463 7.03327 5.78274C5.69052 6.74085 4.67492 8.08214 4.11491 9.63698C3.5549 11.1918 3.47562 12.8904 3.8871 14.5179C4.29858 16.1454 5.18233 17.6287 6.42661 18.7803C7.67089 19.9319 9.2198 20.7 10.8775 20.9875C12.5352 21.275 14.2272 21.069 15.7395 20.3956C17.2518 19.7221 18.5166 18.6114 19.3739 17.204C20.2311 15.7966 20.6424 14.1556 20.5556 12.4885C20.4392 10.2531 19.4365 8.12976 17.7679 6.58553C16.0994 5.04131 13.9018 4.20273 11.6585 4.25428ZM11.0641 16.0761L7.88661 13.1353L8.7974 12.156L10.9645 14.1616L15.2091 9.59758L16.2231 10.5303L11.0641 16.0761Z" fill="black"/>
<path d="M40.7162 2.6137C39.1134 2.09676 37.4298 2.07031 35.8783 2.53771C34.3267 3.00511 32.9769 3.94535 31.9996 5.23954C31.0223 6.53374 30.4613 8.12375 30.3876 9.80852C30.314 11.4933 30.7309 13.1971 31.5857 14.7046C32.4405 16.2121 33.6947 17.4555 35.1899 18.2775C36.6851 19.0996 38.3539 19.4634 39.9855 19.323C41.617 19.1826 43.138 18.5442 44.356 17.4886C45.574 16.4331 46.4344 15.0077 46.8284 13.3927C47.3566 11.2271 47.0094 8.87489 45.8632 6.85343C44.717 4.83197 42.8655 3.3069 40.7162 2.6137ZM36.7714 13.6659L34.5885 9.81628L35.7351 9.18577L37.2239 11.8112L42.5674 8.87284L43.2656 10.0958L36.7714 13.6659Z" fill="black"/>
<g clip-path="url(#clip0_12_2763)">
<path d="M29.5996 30.1289C28.843 31.7075 28.5698 33.4878 28.8147 35.2448C29.0596 37.0018 29.8115 38.6566 30.9754 39.9997C32.1392 41.3429 33.6628 42.3143 35.3534 42.7909C37.0439 43.2676 38.8256 43.2281 40.473 42.6775C42.1205 42.127 43.5597 41.0901 44.6087 39.6979C45.6578 38.3057 46.2695 36.6208 46.3665 34.8562C46.4635 33.0916 46.0415 31.3267 45.1538 29.7845C44.2661 28.2423 42.9527 26.9922 41.3795 26.1922C39.2695 25.122 36.8442 24.9355 34.6358 25.6736C32.4274 26.4116 30.6162 28.0139 29.5996 30.1289ZM40.9537 32.3079C41.0379 32.2798 41.127 32.2688 41.2161 32.2757C41.3052 32.2826 41.3924 32.3072 41.4728 32.3481C41.5532 32.389 41.6252 32.4454 41.6847 32.514C41.7441 32.5826 41.7899 32.6622 41.8194 32.7482C41.8489 32.8341 41.8616 32.9248 41.8566 33.0149C41.8517 33.1051 41.8292 33.193 41.7905 33.2737C41.7519 33.3544 41.6978 33.4262 41.6313 33.4851C41.5648 33.544 41.4872 33.5888 41.403 33.6169L38.4188 34.6136L39.4652 37.6598C39.4947 37.7458 39.5073 37.8364 39.5023 37.9266C39.4974 38.0168 39.4749 38.1047 39.4363 38.1854C39.3976 38.2661 39.3435 38.3379 39.277 38.3968C39.2105 38.4557 39.1329 38.5005 39.0488 38.5286C38.9646 38.5567 38.8754 38.5677 38.7863 38.5608C38.6972 38.5539 38.61 38.5293 38.5296 38.4884C38.4492 38.4475 38.3772 38.3911 38.3178 38.3225C38.2583 38.2538 38.2125 38.1743 38.183 38.0883L37.1377 35.0417L34.1539 36.0395C33.9839 36.0963 33.7971 36.0818 33.6348 35.9993C33.4724 35.9167 33.3477 35.7728 33.2881 35.5992C33.2285 35.4256 33.2389 35.2366 33.317 35.0737C33.3951 34.9107 33.5345 34.7873 33.7045 34.7305L36.6888 33.7338L35.6424 30.6875C35.6129 30.6016 35.6003 30.5109 35.6052 30.4208C35.6102 30.3306 35.6326 30.2427 35.6713 30.162C35.71 30.0813 35.7641 30.0095 35.8306 29.9506C35.8971 29.8917 35.9746 29.8469 36.0588 29.8188C36.143 29.7907 36.2322 29.7797 36.3212 29.7866C36.4103 29.7935 36.4975 29.8181 36.5779 29.859C36.6583 29.8999 36.7303 29.9563 36.7898 30.0249C36.8493 30.0935 36.8951 30.1731 36.9246 30.2591L37.9698 33.3057L40.9537 32.3079Z" fill="black"/>
</g>
<path d="M59.5085 51.976C57.8577 51.981 56.2609 52.474 54.92 53.3927C53.5792 54.3114 52.5546 55.6145 51.9758 57.1372C51.3969 58.66 51.2898 60.334 51.6681 61.9475C52.0463 63.561 52.8929 65.0416 54.1007 66.202C55.3085 67.3625 56.8234 68.1506 58.4537 68.4669C60.084 68.7831 61.7566 68.6132 63.2598 67.9786C64.7631 67.344 66.0296 66.2733 66.8992 64.9018C67.7687 63.5303 68.2023 61.9197 68.145 60.2736C68.0659 58.0669 67.1121 55.954 65.493 54.3984C63.8739 52.8428 61.7216 51.9716 59.5085 51.976ZM62.894 62.3977C62.9557 62.457 63.0055 62.5274 63.0405 62.6051C63.0755 62.6827 63.095 62.7659 63.0979 62.8501C63.1008 62.9342 63.0871 63.0175 63.0575 63.0954C63.0279 63.1732 62.9831 63.2439 62.9255 63.3036C62.8679 63.3633 62.7987 63.4107 62.7219 63.4431C62.6451 63.4755 62.5621 63.4923 62.4778 63.4926C62.3934 63.4929 62.3093 63.4765 62.2302 63.4446C62.1512 63.4126 62.0787 63.3657 62.017 63.3064L59.8296 61.204L57.7889 63.3192C57.7314 63.3788 57.6622 63.4262 57.5854 63.4587C57.5085 63.4911 57.4256 63.5079 57.3412 63.5082C57.2568 63.5084 57.1727 63.4921 57.0937 63.4602C57.0146 63.4282 56.9421 63.3812 56.8804 63.3219C56.8187 63.2626 56.7689 63.1922 56.7339 63.1145C56.6989 63.0369 56.6794 62.9537 56.6765 62.8696C56.6736 62.7854 56.6873 62.7021 56.7169 62.6243C56.7464 62.5464 56.7913 62.4757 56.8489 62.416L58.8904 60.3017L56.7022 58.2001C56.5776 58.0804 56.5042 57.9176 56.4983 57.7477C56.4924 57.5778 56.5544 57.4147 56.6707 57.2942C56.787 57.1737 56.948 57.1057 57.1184 57.1052C57.2888 57.1047 57.4546 57.1717 57.5792 57.2914L59.7666 59.3938L61.8072 57.2786C61.8648 57.219 61.934 57.1716 62.0108 57.1391C62.0877 57.1067 62.1706 57.0899 62.255 57.0896C62.3393 57.0894 62.4235 57.1057 62.5025 57.1376C62.5816 57.1696 62.654 57.2166 62.7158 57.2759C62.7775 57.3352 62.8273 57.4056 62.8623 57.4833C62.8972 57.5609 62.9168 57.6441 62.9197 57.7282C62.9226 57.8124 62.9089 57.8957 62.8793 57.9735C62.8497 58.0514 62.8049 58.1221 62.7473 58.1818L60.7058 60.2961L62.894 62.3977Z" fill="black"/>
<path d="M12.6002 50.2458C10.9758 49.9288 9.3224 50.1024 7.84904 50.7445C6.37568 51.3866 5.14855 52.4684 4.32281 53.853C3.49708 55.2377 3.10983 56.8631 3.21005 58.5236C3.31026 60.1842 3.89343 61.8053 4.88581 63.182C5.87819 64.5587 7.23522 65.6292 8.78528 66.258C10.3353 66.8869 12.0088 67.0458 13.5941 66.7149C15.1793 66.3839 16.6052 65.5778 17.6914 64.3985C18.7775 63.2193 19.4752 61.7198 19.6961 60.0898C19.99 57.9042 19.4079 55.6403 18.0776 53.7948C16.7473 51.9493 14.7774 50.6729 12.6002 50.2458ZM14.1743 61.155C14.225 61.2253 14.2621 61.3044 14.2834 61.3875C14.3047 61.4707 14.3099 61.5563 14.2986 61.6396C14.2873 61.7229 14.2598 61.8022 14.2176 61.873C14.1754 61.9438 14.1194 62.0046 14.0527 62.0521C13.986 62.0995 13.91 62.1326 13.829 62.1495C13.7479 62.1665 13.6635 62.1668 13.5805 62.1506C13.4975 62.1344 13.4175 62.102 13.3452 62.0552C13.2728 62.0083 13.2094 61.948 13.1587 61.8776L11.3617 59.3837L8.99854 61.066C8.93186 61.1134 8.85584 61.1465 8.77483 61.1635C8.69381 61.1804 8.60939 61.1807 8.52638 61.1645C8.44337 61.1483 8.3634 61.1159 8.29102 61.0691C8.21865 61.0222 8.1553 60.9619 8.10459 60.8915C8.05387 60.8212 8.01679 60.7422 7.99545 60.659C7.97412 60.5759 7.96895 60.4902 7.98024 60.4069C7.99153 60.3236 8.01906 60.2443 8.06126 60.1735C8.10345 60.1028 8.15949 60.0419 8.22617 59.9945L10.59 58.3131L8.792 55.8198C8.68958 55.6777 8.64485 55.5034 8.66765 55.3351C8.69045 55.1669 8.77892 55.0185 8.91359 54.9227C9.04826 54.8269 9.2181 54.7914 9.38575 54.8241C9.55339 54.8568 9.70512 54.955 9.80754 55.0971L11.6046 57.5911L13.9677 55.9088C14.0344 55.8614 14.1104 55.8282 14.1914 55.8113C14.2724 55.7944 14.3569 55.794 14.4399 55.8102C14.5229 55.8264 14.6029 55.8589 14.6752 55.9057C14.7476 55.9525 14.811 56.0129 14.8617 56.0832C14.9124 56.1536 14.9495 56.2326 14.9708 56.3157C14.9921 56.3989 14.9973 56.4846 14.986 56.5679C14.9747 56.6512 14.9472 56.7305 14.905 56.8012C14.8628 56.872 14.8068 56.9328 14.7401 56.9803L12.3763 58.6616L14.1743 61.155Z" fill="black"/>
<line y1="-0.5" x2="69.7406" y2="-0.5" transform="matrix(-0.0696622 0.997571 -0.996686 -0.0813397 28.4175 1.42886)" stroke="black"/>
<line y1="-0.5" x2="68.3328" y2="-0.5" transform="matrix(-0.116056 0.993243 -0.990805 -0.135298 53.5305 2.85773)" stroke="black"/>
<path d="M61.1938 25.9168C59.5474 26.2384 58.0358 27.0366 56.8502 28.2104C55.6646 29.3842 54.8582 30.8809 54.5329 32.5113C54.2076 34.1416 54.3782 35.8324 55.0229 37.3698C55.6676 38.9072 56.7576 40.2221 58.155 41.1483C59.5524 42.0746 61.1945 42.5705 62.8736 42.5733C64.5527 42.5762 66.1933 42.0859 67.5881 41.1644C68.9829 40.243 70.0692 38.9317 70.7096 37.3965C71.35 35.8613 71.5157 34.1711 71.1858 32.5396C70.7435 30.3519 69.4422 28.4251 67.5683 27.183C65.6945 25.941 63.4015 25.4855 61.1938 25.9168ZM62.3385 37.6917L58.7699 35.3264L59.5259 34.2048L61.9596 35.818L65.4827 30.5913L66.6206 31.3404L62.3385 37.6917Z" fill="black"/>
<line y1="-0.5" x2="67.9781" y2="-0.5" transform="matrix(-0.999725 -0.0234482 0.0200655 -0.999799 76 24.2907)" stroke="black"/>
<line y1="-0.5" x2="71.2698" y2="-0.5" transform="matrix(-0.999924 -0.0123245 -0.0249921 -0.999688 73.6921 44.539)" stroke="black"/>
<defs>
<clipPath id="clip0_12_2763">
<rect width="21.7871" height="21.9655" fill="white" transform="matrix(0.432234 -0.901761 0.891371 0.453274 23.1304 37.5075)"/>
</clipPath>
</defs>
</svg>
